<mxfile host="app.diagrams.net" modified="2024-02-08T07:31:03.686Z" agent="Mozilla/5.0 (Windows NT 10.0; Win64; x64) AppleWebKit/537.36 (KHTML, like Gecko) Chrome/121.0.0.0 Safari/537.36 Edg/121.0.0.0" etag="HuYJPqi0BdrMQ6Q58flR" version="23.1.1" type="github">
  <diagram name="第 1 页" id="tdUGsxC5FgH-5Bn04mV0">
    <mxGraphModel dx="2590" dy="897" grid="1" gridSize="10" guides="1" tooltips="1" connect="1" arrows="1" fold="1" page="1" pageScale="1" pageWidth="500" pageHeight="600" math="0" shadow="0">
      <root>
        <mxCell id="0" />
        <mxCell id="1" parent="0" />
        <mxCell id="MbMatcD9Ed3aydyTDUXC-10" value="&lt;font face=&quot;Times New Roman&quot; style=&quot;font-size: 15px;&quot;&gt;Original Logic Network&lt;/font&gt;" style="rounded=1;whiteSpace=wrap;html=1;fillColor=#f8cecc;strokeColor=#b85450;fontStyle=1;fontSize=15;strokeWidth=2;" vertex="1" parent="1">
          <mxGeometry x="-584.75" y="40" width="170" height="30" as="geometry" />
        </mxCell>
        <mxCell id="MbMatcD9Ed3aydyTDUXC-20" value="&lt;font face=&quot;Times New Roman&quot; style=&quot;font-size: 15px;&quot;&gt;RL_based Logic Optimizer&lt;/font&gt;" style="rounded=0;whiteSpace=wrap;html=1;fillColor=#f5f5f5;strokeColor=#666666;fontColor=#333333;fontStyle=1;fontSize=15;strokeWidth=3;" vertex="1" parent="1">
          <mxGeometry x="-710" y="374" width="420.5" height="30" as="geometry" />
        </mxCell>
        <mxCell id="MbMatcD9Ed3aydyTDUXC-21" style="edgeStyle=orthogonalEdgeStyle;rounded=0;orthogonalLoop=1;jettySize=auto;html=1;entryX=0.092;entryY=0;entryDx=0;entryDy=0;entryPerimeter=0;fontStyle=1;fontSize=15;strokeWidth=3;" edge="1" parent="1" target="MbMatcD9Ed3aydyTDUXC-20">
          <mxGeometry relative="1" as="geometry">
            <mxPoint x="-671.1724137931033" y="341" as="sourcePoint" />
          </mxGeometry>
        </mxCell>
        <mxCell id="MbMatcD9Ed3aydyTDUXC-22" style="edgeStyle=orthogonalEdgeStyle;rounded=0;orthogonalLoop=1;jettySize=auto;html=1;entryX=0.312;entryY=-0.015;entryDx=0;entryDy=0;entryPerimeter=0;fontStyle=1;fontSize=15;strokeWidth=3;" edge="1" parent="1" target="MbMatcD9Ed3aydyTDUXC-20">
          <mxGeometry relative="1" as="geometry">
            <mxPoint x="-578.2068965517242" y="341" as="sourcePoint" />
          </mxGeometry>
        </mxCell>
        <mxCell id="MbMatcD9Ed3aydyTDUXC-23" style="edgeStyle=orthogonalEdgeStyle;rounded=0;orthogonalLoop=1;jettySize=auto;html=1;entryX=0.599;entryY=-0.037;entryDx=0;entryDy=0;entryPerimeter=0;fontStyle=1;fontSize=15;strokeWidth=3;" edge="1" parent="1" target="MbMatcD9Ed3aydyTDUXC-20">
          <mxGeometry relative="1" as="geometry">
            <mxPoint x="-458.2068965517242" y="341" as="sourcePoint" />
          </mxGeometry>
        </mxCell>
        <mxCell id="MbMatcD9Ed3aydyTDUXC-24" style="edgeStyle=orthogonalEdgeStyle;rounded=0;orthogonalLoop=1;jettySize=auto;html=1;entryX=0.892;entryY=-0.059;entryDx=0;entryDy=0;entryPerimeter=0;fontStyle=1;fontSize=15;strokeWidth=3;" edge="1" parent="1" target="MbMatcD9Ed3aydyTDUXC-20">
          <mxGeometry relative="1" as="geometry">
            <mxPoint x="-335.44827586206884" y="341" as="sourcePoint" />
          </mxGeometry>
        </mxCell>
        <mxCell id="MbMatcD9Ed3aydyTDUXC-25" value="&lt;font face=&quot;Times New Roman&quot; style=&quot;font-size: 15px;&quot;&gt;Circuit Merging&lt;/font&gt;" style="rounded=0;whiteSpace=wrap;html=1;fillColor=#d5e8d4;strokeColor=#82b366;fontStyle=1;fontSize=15;strokeWidth=3;" vertex="1" parent="1">
          <mxGeometry x="-599.75" y="454" width="200" height="30" as="geometry" />
        </mxCell>
        <mxCell id="MbMatcD9Ed3aydyTDUXC-26" value="&lt;font face=&quot;Times New Roman&quot; style=&quot;font-size: 15px;&quot;&gt;Optimized Logic Network&lt;/font&gt;" style="rounded=1;whiteSpace=wrap;html=1;fillColor=#f8cecc;strokeColor=#b85450;fontStyle=1;fontSize=15;strokeWidth=3;" vertex="1" parent="1">
          <mxGeometry x="-584.75" y="514" width="170" height="30" as="geometry" />
        </mxCell>
        <mxCell id="MbMatcD9Ed3aydyTDUXC-27" style="edgeStyle=orthogonalEdgeStyle;rounded=0;orthogonalLoop=1;jettySize=auto;html=1;entryX=0.5;entryY=0;entryDx=0;entryDy=0;fontStyle=1;fontSize=15;strokeWidth=3;" edge="1" parent="1" source="MbMatcD9Ed3aydyTDUXC-25" target="MbMatcD9Ed3aydyTDUXC-26">
          <mxGeometry relative="1" as="geometry" />
        </mxCell>
        <mxCell id="MbMatcD9Ed3aydyTDUXC-28" value="&lt;font face=&quot;Times New Roman&quot; style=&quot;font-size: 15px;&quot;&gt;Circuit Partitioning&lt;/font&gt;" style="rounded=0;whiteSpace=wrap;html=1;fillColor=#f5f5f5;strokeColor=#666666;fontColor=#333333;fontStyle=1;fontSize=15;strokeWidth=3;" vertex="1" parent="1">
          <mxGeometry x="-720" y="110" width="420.5" height="30" as="geometry" />
        </mxCell>
      </root>
    </mxGraphModel>
  </diagram>
</mxfile>
